<?xml version="1.0" encoding="utf-8"?>
<!-- Generator: Adobe Illustrator 23.0.0, SVG Export Plug-In . SVG Version: 6.00 Build 0)  -->
<svg version="1.1" id="Capa_1" xmlns="http://www.w3.org/2000/svg" xmlns:xlink="http://www.w3.org/1999/xlink" x="0px" y="0px"
	 viewBox="0 0 183.57 183.57" style="enable-background:new 0 0 183.57 183.57;" xml:space="preserve">
<style type="text/css">
	.st0{fill:url(#Elipse_1_1_);}
	.st1{fill:#FFFFFF;}
	.st2{display:none;}
	.st3{display:inline;fill:#FFFFFF;}
	.st4{display:inline;}
</style>
<g id="HIGLIGHTS" transform="translate(537.518 478.751)">
	
		<linearGradient id="Elipse_1_1_" gradientUnits="userSpaceOnUse" x1="-718.3972" y1="-606.4194" x2="-717.1782" y2="-607.7634" gradientTransform="matrix(183.566 0 0 -183.566 131384.9375 -111751.9375)">
		<stop  offset="0" style="stop-color:#FAAA0C"/>
		<stop  offset="0.446" style="stop-color:#F8B50C"/>
		<stop  offset="1" style="stop-color:#F8B50C"/>
		<stop  offset="1" style="stop-color:#F7BB0E"/>
	</linearGradient>
	<circle id="Elipse_1" class="st0" cx="-445.74" cy="-386.97" r="91.78"/>
	<g id="APP_PROPIA" transform="translate(-123.714 433.579)">
		<g id="Grupo_12">
			<g id="Grupo_10">
				<circle id="Elipse_4" class="st1" cx="-322.18" cy="-782.21" r="4.22"/>
			</g>
			<path id="Trazado_17" class="st1" d="M-307.68-863.5h-29.08c-7.01,0.01-12.68,5.69-12.69,12.69v67.84
				c0.01,7.01,5.69,12.68,12.69,12.69h29.07c7.01-0.01,12.68-5.69,12.69-12.69v-67.84C-295.01-857.81-300.68-863.49-307.68-863.5z
				 M-344.96-844.28h45.48v50.23h-45.48V-844.28z M-336.76-859.01h29.07c4.53,0.01,8.19,3.67,8.2,8.2v2.04h-45.47v-2.04
				C-344.96-855.34-341.29-859-336.76-859.01z M-307.69-774.76h-29.07c-4.53-0.01-8.19-3.67-8.2-8.2v-6.6h45.48v6.6
				C-299.49-778.44-303.16-774.77-307.69-774.76L-307.69-774.76z"/>
			<g id="Grupo_11">
				<path id="Trazado_18" class="st1" d="M-319.63-851.6h-5.1c-1.24,0-2.24-1-2.24-2.24s1-2.24,2.24-2.24h5.1
					c1.24,0,2.24,1,2.24,2.24S-318.39-851.6-319.63-851.6z"/>
			</g>
		</g>
	</g>
	<g id="Grupo_1" class="st2">
		<path id="Trazado_10" class="st3" d="M-391.98-431.82h-25.79c-1.13,0-2.05,0.92-2.05,2.05s0.92,2.05,2.05,2.05h4.25v5.19
			c-1.3,0.63-2.48,1.47-3.5,2.49l0,0l-10.58,10.58l3.95,3.95l-22.29,20.03l-22.29-20.03l3.95-3.95l-5.48-5.48l0,0l-5.1-5.1l0,0
			c-1.02-1.02-2.2-1.86-3.5-2.49v-5.19h4.25c1.13,0,2.05-0.92,2.05-2.05s-0.92-2.05-2.05-2.05h-25.79c-1.13,0-2.05,0.92-2.05,2.05
			s0.92,2.05,2.05,2.05h7.4v6.93c-0.29,0.24-0.57,0.49-0.83,0.76c-5.09,5.11-5.09,13.38,0,18.48l0,0l10.58,10.58l3.43-3.43
			l13.08,27.18l-18.89,16.98c-0.84,0.76-0.91,2.05-0.15,2.89c0.39,0.43,0.94,0.68,1.53,0.68c0.51,0,0.99-0.19,1.37-0.53l18-16.18
			l7.48,15.55c0.34,0.71,1.06,1.16,1.85,1.16c0.31,0,0.61-0.07,0.89-0.2c1.02-0.49,1.45-1.72,0.96-2.74c0,0,0,0,0,0l-8-16.62
			l15.28-13.73l15.28,13.73l-8,16.62c-0.49,1.02-0.06,2.24,0.96,2.74c0,0,0,0,0,0c0.28,0.13,0.58,0.2,0.89,0.2
			c0.79,0,1.51-0.45,1.85-1.16l7.48-15.55l18,16.18c0.38,0.34,0.86,0.53,1.37,0.53c0.58,0,1.14-0.25,1.52-0.68
			c0.76-0.84,0.69-2.14-0.15-2.89c0,0,0,0,0,0l-18.89-16.98l13.08-27.18l3.43,3.43l10.58-10.58l0,0c5.09-5.11,5.09-13.38,0-18.48
			c-0.27-0.27-0.55-0.52-0.83-0.76v-6.93h7.4c1.13,0,2.05-0.92,2.05-2.05C-389.93-430.9-390.84-431.82-391.98-431.82
			C-391.98-431.82-391.98-431.82-391.98-431.82z M-488.42-427.72h5.95v3.97c-0.54-0.07-1.09-0.11-1.64-0.11
			c-1.47,0-2.93,0.25-4.31,0.74V-427.72z M-490.45-417.14c1.68-1.69,3.96-2.63,6.34-2.63c2.38-0.01,4.66,0.94,6.34,2.63l0,0
			l3.65,3.65l-12.69,12.69l-3.65-3.65l0,0C-493.95-407.96-493.95-413.63-490.45-417.14L-490.45-417.14z M-483.9-397.9l12.69-12.69
			l1.13,1.13l-12.69,12.69L-483.9-397.9z M-463.08-370.08l-13.18-27.4l5.13-5.13l22.13,19.88L-463.08-370.08z M-428.82-370.08
			l-14.07-12.64l22.12-19.88l5.13,5.13L-428.82-370.08z M-421.82-409.46l1.13-1.13L-408-397.9l-1.13,1.13L-421.82-409.46z
			 M-401.45-404.45L-401.45-404.45l-3.65,3.65l-12.69-12.69l3.65-3.65l0,0c1.68-1.69,3.96-2.63,6.34-2.63
			c2.38-0.01,4.67,0.94,6.35,2.63C-397.95-413.63-397.95-407.96-401.45-404.45L-401.45-404.45z M-403.48-423.13
			c-1.38-0.49-2.84-0.74-4.31-0.74c-0.55,0-1.09,0.04-1.64,0.11v-3.97h5.95V-423.13z"/>
	</g>
	<g class="st2">
		<g class="st4">
			<path class="st1" d="M-450.04-396.84h-14.02c-1.1,0-2-0.9-2-2s0.9-2,2-2h14.02c1.1,0,2,0.9,2,2S-448.94-396.84-450.04-396.84z"/>
		</g>
		<g class="st4">
			<path class="st1" d="M-429.58-383.32h-34.48c-1.1,0-2-0.9-2-2s0.9-2,2-2h34.48c1.1,0,2,0.9,2,2S-428.47-383.32-429.58-383.32z"/>
		</g>
		<g class="st4">
			<path class="st1" d="M-429.58-369.81h-34.48c-1.1,0-2-0.9-2-2s0.9-2,2-2h34.48c1.1,0,2,0.9,2,2S-428.47-369.81-429.58-369.81z"/>
		</g>
		<g class="st4">
			<path class="st1" d="M-429.58-356.29h-34.48c-1.1,0-2-0.9-2-2s0.9-2,2-2h34.48c1.1,0,2,0.9,2,2S-428.47-356.29-429.58-356.29z"/>
		</g>
		<path class="st3" d="M-423.22-439.79c-4.01,0-7.89,1.33-11.04,3.77c0,0,0,0,0,0l-2.26-1.77l-1.14,9.65l8.83-3.64l-2.16-1.68
			c2.29-1.51,4.99-2.33,7.77-2.33c7.79,0,14.12,6.34,14.12,14.12c0,5.76-3.47,10.73-8.44,12.93c-1.25,0.55-2.59,0.92-4,1.09
			c-0.55,0.07-1.11,0.1-1.68,0.1c-6.39,0-11.8-4.28-13.53-10.12c-0.38-1.27-0.58-2.61-0.58-4h-4h-24.65
			c-6.29,0-11.41,5.12-11.41,11.41v59.77c0,6.29,5.12,11.41,11.41,11.41h37.03c6.3,0,11.41-5.12,11.41-11.41v-53.98
			c7.22-2.38,12.44-9.19,12.44-17.2C-405.1-431.66-413.23-439.79-423.22-439.79z M-421.54-350.49c0,4.09-3.32,7.41-7.41,7.41h-37.03
			c-4.09,0-7.41-3.32-7.41-7.41v-59.77c0-4.09,3.32-7.41,7.41-7.41h25.1c1.82,8.07,9.04,14.12,17.66,14.12
			c0.57,0,1.13-0.03,1.68-0.08V-350.49z"/>
		<path class="st3" d="M-421.36-429.22c-1.1,0-2,0.9-2,2v5.78h-5.78c-1.1,0-2,0.9-2,2s0.9,2,2,2h7.78c1.1,0,2-0.9,2-2v-7.78
			C-419.36-428.33-420.26-429.22-421.36-429.22z"/>
	</g>
</g>
</svg>
