<?xml version="1.0" encoding="utf-8"?>
<!-- Generator: Adobe Illustrator 23.0.0, SVG Export Plug-In . SVG Version: 6.00 Build 0)  -->
<svg version="1.1" id="Capa_1" xmlns="http://www.w3.org/2000/svg" xmlns:xlink="http://www.w3.org/1999/xlink" x="0px" y="0px"
	 viewBox="0 0 228.01 58" style="enable-background:new 0 0 228.01 58;" xml:space="preserve">
<style type="text/css">
	.st0{fill:#FFBB00;}
</style>
<g id="LOGO" transform="translate(-176.038 -172.219)">
	<path id="Trazado_5" class="st0" d="M279.56,188.76c-5.01-2.34-11.36-1.81-17.4,1.46c-1.13,0.61-2.22,1.3-3.26,2.06
		c-0.57-5.72-3.73-10.9-9.01-14.66c-5.31-3.79-12.19-5.69-19.35-5.37c-14,0.63-25.19,9.72-26.34,20.81
		c-0.32-0.32-0.63-0.63-0.95-0.92c-4.26-3.92-11.27-5.23-17.05-3.2c-5.49,1.93-9.03,6.42-9.98,12.65
		c-1.9,12.44,11.38,18.37,18.67,19.76c1.96,0.37,3.85-0.91,4.22-2.87c0.37-1.96-0.91-3.84-2.86-4.22
		c-0.14-0.03-14.23-2.83-12.89-11.58c0.54-3.57,2.31-5.9,5.24-6.93c3.59-1.26,7.79-0.12,9.77,1.71c0.94,0.87,2.02,2.09,3.26,3.52
		c3.81,4.36,8.94,10.21,17.04,13.44c3.91,1.61,8.1,2.43,12.33,2.41c0.48,0,0.96-0.01,1.44-0.03c0.01,0,0.02,0,0.04,0h0.02h0.06
		c0.05,0,0.1-0.01,0.14-0.01c7.25-0.19,12.3-2.38,16.27-5.27c0.83-0.56,1.62-1.16,2.38-1.81c0.87-0.75,1.7-1.56,2.46-2.43
		c0.93-0.94,1.82-1.9,2.69-2.83c2.82-3.04,5.48-5.9,9.1-7.86c4.01-2.17,7.99-2.63,10.91-1.27c2.08,0.97,3.45,2.81,3.96,5.3
		c1.14,5.61-7.38,10.86-15.97,12.96c-1.94,0.47-3.12,2.42-2.65,4.36s2.42,3.12,4.36,2.65c12.18-2.96,23.51-10.73,21.34-21.41
		C286.57,194.41,283.74,190.72,279.56,188.76z M230.87,179.46c0.42-0.02,0.83-0.03,1.25-0.03c5.1,0,9.89,1.42,13.59,4.06
		c3.74,2.66,5.89,6.25,6.07,10.11c0.14,3.11-1.02,6.16-3.29,8.79c-1.11,1.14-2.31,2.19-3.58,3.14c-3.76,2.49-8.13,3.88-12.64,4.04
		c-3.93,0.13-7.85-0.58-11.48-2.09c-0.02-0.01-0.04-0.02-0.07-0.03c-0.05-0.02-0.09-0.04-0.14-0.06c-1.11-0.52-2.18-1.13-3.18-1.84
		c-3.74-2.66-5.89-6.25-6.06-10.11C210.95,187.13,219.71,179.97,230.87,179.46L230.87,179.46z"/>
	<path id="Trazado_6" class="st0" d="M401.13,213.81c-1.95-0.38-3.85,0.89-4.23,2.84c-0.01,0.07-1.46,6.86-5.03,6.3
		c-1.52-0.23-2.42-0.89-2.83-2.06c-0.52-1.48-0.07-3.35,0.68-4.16c0.45-0.49,1.13-1.09,1.93-1.78c2.35-2.05,5.7-4.99,7.79-9.51
		c1.4-2.96,2.06-6.21,1.92-9.48c0-0.04,0-0.07,0-0.11l0-0.02c0-0.02,0-0.04,0-0.07c-0.15-4-1.5-7.87-3.88-11.09
		c-1.19-1.6-3.45-1.92-5.05-0.73c-1.6,1.19-1.92,3.45-0.73,5.05c0.02,0.02,0.03,0.04,0.05,0.06c1.48,2.04,2.32,4.47,2.4,6.99
		c0.06,1.88-0.24,3.75-0.89,5.51c-0.06,0.14-0.11,0.29-0.17,0.42c-0.02,0.06-0.05,0.11-0.07,0.17c-0.26,0.57-0.57,1.11-0.93,1.62
		c-1.27,1.79-2.95,2.82-4.71,2.9c-1.77,0.09-3.53-0.79-4.96-2.46c-1.62-1.89-2.63-4.61-2.76-7.47c-0.1-1.94,0.23-3.88,0.96-5.67
		c0.79-1.83-0.06-3.95-1.9-4.74c-1.83-0.79-3.95,0.06-4.74,1.9c-0.01,0.02-0.01,0.03-0.02,0.05c-1.14,2.78-1.66,5.79-1.51,8.79
		c0.14,4.34,1.72,8.5,4.49,11.84c1.7,2.01,3.91,3.52,6.41,4.35c-1.83,3.01-2.23,6.68-1.11,10.02c1.29,3.69,4.41,6.17,8.55,6.8
		c0.54,0.08,1.09,0.13,1.64,0.13c7.24,0,10.71-7.78,11.56-12.19C404.36,216.08,403.08,214.19,401.13,213.81z"/>
	<path id="Trazado_7" class="st0" d="M357.09,183.98c-7.53,0-13.65,7.37-13.65,16.43s6.12,16.43,13.65,16.43s13.65-7.37,13.65-16.43
		S364.62,183.98,357.09,183.98z M357.09,209.61c-3.49,0-6.43-4.22-6.43-9.21s2.95-9.21,6.43-9.21c3.49,0,6.43,4.22,6.43,9.21
		S360.58,209.61,357.09,209.61L357.09,209.61z"/>
	<path id="Trazado_8" class="st0" d="M327.88,178.47c1.91-0.47,4.84,2.55,6.39,6.6c0.62,1.63,2.66,2.51,4.55,1.98
		c1.9-0.53,2.92-2.29,2.3-3.91c-3.01-7.86-9.13-12.13-15.24-10.62c-3.14,0.77-5.57,2.66-6.66,5.17c-1.3,2.98-0.65,6.53,1.79,9.76
		c1.81,2.4,4.16,4,6.22,5.4c3.27,2.22,5.63,3.83,6.13,8.12c0,0.01,0.01,0.03,0.01,0.04c0,0.01,0,0.02,0,0.04
		c0.37,2.34-0.15,4.74-1.46,6.72c-1.01,1.54-2.64,2.57-4.47,2.8c-1.88,0.15-3.74-0.49-5.14-1.77c-1.82-1.6-3-3.8-3.33-6.2
		c-0.25-1.7-2.06-2.9-4.03-2.69c-1.98,0.21-3.38,1.76-3.14,3.46c0.55,3.83,2.47,7.32,5.41,9.83c2.68,2.3,6.09,3.58,9.63,3.6
		c0.5,0,0.99-0.03,1.49-0.08c3.94-0.42,7.5-2.52,9.77-5.76c2.12-3.09,2.99-6.87,2.44-10.58c0-0.01,0-0.01,0-0.02l0-0.03
		c0-0.02,0-0.03,0-0.04c0-0.01,0-0.01-0.01-0.02c-0.83-6.84-5.26-9.85-8.82-12.27c-1.79-1.21-3.48-2.36-4.64-3.91
		c-1.16-1.54-1.57-3.12-1.09-4.22C326.28,179.18,326.92,178.71,327.88,178.47z"/>
</g>
</svg>
